<svg width="162" height="44" viewBox="0 0 162 44" fill="none" xmlns="http://www.w3.org/2000/svg">
<path d="M61.624 31.66C62.512 31.66 63.288 31.832 63.952 32.176C64.624 32.512 65.14 33 65.5 33.64C65.868 34.272 66.052 35.012 66.052 35.86C66.052 36.708 65.868 37.444 65.5 38.068C65.14 38.692 64.624 39.172 63.952 39.508C63.288 39.836 62.512 40 61.624 40H58.9V31.66H61.624ZM61.624 38.884C62.6 38.884 63.348 38.62 63.868 38.092C64.388 37.564 64.648 36.82 64.648 35.86C64.648 34.892 64.388 34.136 63.868 33.592C63.348 33.048 62.6 32.776 61.624 32.776H60.268V38.884H61.624ZM72.4358 38.296H68.9438L68.3438 40H66.9158L69.9038 31.648H71.4878L74.4758 40H73.0358L72.4358 38.296ZM72.0518 37.18L70.6958 33.304L69.3278 37.18H72.0518ZM78.523 40.084C77.963 40.084 77.459 39.988 77.011 39.796C76.563 39.596 76.211 39.316 75.955 38.956C75.699 38.596 75.571 38.176 75.571 37.696H77.035C77.067 38.056 77.207 38.352 77.455 38.584C77.711 38.816 78.067 38.932 78.523 38.932C78.995 38.932 79.363 38.82 79.627 38.596C79.891 38.364 80.023 38.068 80.023 37.708C80.023 37.428 79.939 37.2 79.771 37.024C79.611 36.848 79.407 36.712 79.159 36.616C78.919 36.52 78.583 36.416 78.151 36.304C77.607 36.16 77.163 36.016 76.819 35.872C76.483 35.72 76.195 35.488 75.955 35.176C75.715 34.864 75.595 34.448 75.595 33.928C75.595 33.448 75.715 33.028 75.955 32.668C76.195 32.308 76.531 32.032 76.963 31.84C77.395 31.648 77.895 31.552 78.463 31.552C79.271 31.552 79.931 31.756 80.443 32.164C80.963 32.564 81.251 33.116 81.307 33.82H79.795C79.771 33.516 79.627 33.256 79.363 33.04C79.099 32.824 78.751 32.716 78.319 32.716C77.927 32.716 77.607 32.816 77.359 33.016C77.111 33.216 76.987 33.504 76.987 33.88C76.987 34.136 77.063 34.348 77.215 34.516C77.375 34.676 77.575 34.804 77.815 34.9C78.055 34.996 78.383 35.1 78.799 35.212C79.351 35.364 79.799 35.516 80.143 35.668C80.495 35.82 80.791 36.056 81.031 36.376C81.279 36.688 81.403 37.108 81.403 37.636C81.403 38.06 81.287 38.46 81.055 38.836C80.831 39.212 80.499 39.516 80.059 39.748C79.627 39.972 79.115 40.084 78.523 40.084ZM89.6772 31.66V40H88.3092V36.352H84.3852V40H83.0172V31.66H84.3852V35.236H88.3092V31.66H89.6772ZM95.9421 35.716C96.3901 35.796 96.7701 36.032 97.0821 36.424C97.3941 36.816 97.5501 37.26 97.5501 37.756C97.5501 38.18 97.4381 38.564 97.2141 38.908C96.9981 39.244 96.6821 39.512 96.2661 39.712C95.8501 39.904 95.3661 40 94.8141 40H91.4781V31.66H94.6581C95.2261 31.66 95.7141 31.756 96.1221 31.948C96.5301 32.14 96.8381 32.4 97.0461 32.728C97.2541 33.048 97.3581 33.408 97.3581 33.808C97.3581 34.288 97.2301 34.688 96.9741 35.008C96.7181 35.328 96.3741 35.564 95.9421 35.716ZM92.8461 35.164H94.5381C94.9861 35.164 95.3341 35.064 95.5821 34.864C95.8381 34.656 95.9661 34.36 95.9661 33.976C95.9661 33.6 95.8381 33.308 95.5821 33.1C95.3341 32.884 94.9861 32.776 94.5381 32.776H92.8461V35.164ZM94.6941 38.884C95.1581 38.884 95.5221 38.772 95.7861 38.548C96.0501 38.324 96.1821 38.012 96.1821 37.612C96.1821 37.204 96.0421 36.88 95.7621 36.64C95.4821 36.4 95.1101 36.28 94.6461 36.28H92.8461V38.884H94.6941ZM102.841 40.084C102.065 40.084 101.349 39.904 100.693 39.544C100.045 39.176 99.5287 38.668 99.1447 38.02C98.7687 37.364 98.5807 36.628 98.5807 35.812C98.5807 34.996 98.7687 34.264 99.1447 33.616C99.5287 32.968 100.045 32.464 100.693 32.104C101.349 31.736 102.065 31.552 102.841 31.552C103.625 31.552 104.341 31.736 104.989 32.104C105.645 32.464 106.161 32.968 106.537 33.616C106.913 34.264 107.101 34.996 107.101 35.812C107.101 36.628 106.913 37.364 106.537 38.02C106.161 38.668 105.645 39.176 104.989 39.544C104.341 39.904 103.625 40.084 102.841 40.084ZM102.841 38.896C103.393 38.896 103.885 38.772 104.317 38.524C104.749 38.268 105.085 37.908 105.325 37.444C105.573 36.972 105.697 36.428 105.697 35.812C105.697 35.196 105.573 34.656 105.325 34.192C105.085 33.728 104.749 33.372 104.317 33.124C103.885 32.876 103.393 32.752 102.841 32.752C102.289 32.752 101.797 32.876 101.365 33.124C100.933 33.372 100.593 33.728 100.345 34.192C100.105 34.656 99.9847 35.196 99.9847 35.812C99.9847 36.428 100.105 36.972 100.345 37.444C100.593 37.908 100.933 38.268 101.365 38.524C101.797 38.772 102.289 38.896 102.841 38.896ZM113.475 38.296H109.983L109.383 40H107.955L110.943 31.648H112.527L115.515 40H114.075L113.475 38.296ZM113.091 37.18L111.735 33.304L110.367 37.18H113.091ZM121.146 40L119.226 36.664H118.182V40H116.814V31.66H119.694C120.334 31.66 120.874 31.772 121.314 31.996C121.762 32.22 122.094 32.52 122.31 32.896C122.534 33.272 122.646 33.692 122.646 34.156C122.646 34.7 122.486 35.196 122.166 35.644C121.854 36.084 121.37 36.384 120.714 36.544L122.778 40H121.146ZM118.182 35.572H119.694C120.206 35.572 120.59 35.444 120.846 35.188C121.11 34.932 121.242 34.588 121.242 34.156C121.242 33.724 121.114 33.388 120.858 33.148C120.602 32.9 120.214 32.776 119.694 32.776H118.182V35.572ZM127.12 31.66C128.008 31.66 128.784 31.832 129.448 32.176C130.12 32.512 130.636 33 130.996 33.64C131.364 34.272 131.548 35.012 131.548 35.86C131.548 36.708 131.364 37.444 130.996 38.068C130.636 38.692 130.12 39.172 129.448 39.508C128.784 39.836 128.008 40 127.12 40H124.396V31.66H127.12ZM127.12 38.884C128.096 38.884 128.844 38.62 129.364 38.092C129.884 37.564 130.144 36.82 130.144 35.86C130.144 34.892 129.884 34.136 129.364 33.592C128.844 33.048 128.096 32.776 127.12 32.776H125.764V38.884H127.12Z" fill="#0066FF"/>
<path d="M64.216 25.182C62.8813 25.182 61.6853 24.9653 60.628 24.532C59.5707 24.0987 58.7213 23.4573 58.08 22.608C57.456 21.7587 57.1267 20.736 57.092 19.54H61.824C61.8933 20.216 62.1273 20.736 62.526 21.1C62.9247 21.4467 63.4447 21.62 64.086 21.62C64.7447 21.62 65.2647 21.4727 65.646 21.178C66.0273 20.866 66.218 20.4413 66.218 19.904C66.218 19.4533 66.062 19.0807 65.75 18.786C65.4553 18.4913 65.0827 18.2487 64.632 18.058C64.1987 17.8673 63.5747 17.6507 62.76 17.408C61.5813 17.044 60.6193 16.68 59.874 16.316C59.1287 15.952 58.4873 15.4147 57.95 14.704C57.4127 13.9933 57.144 13.066 57.144 11.922C57.144 10.2233 57.7593 8.89733 58.99 7.944C60.2207 6.97333 61.824 6.488 63.8 6.488C65.8107 6.488 67.4313 6.97333 68.662 7.944C69.8927 8.89733 70.5513 10.232 70.638 11.948H65.828C65.7933 11.3587 65.5767 10.8993 65.178 10.57C64.7793 10.2233 64.268 10.05 63.644 10.05C63.1067 10.05 62.6733 10.1973 62.344 10.492C62.0147 10.7693 61.85 11.1767 61.85 11.714C61.85 12.3033 62.1273 12.7627 62.682 13.092C63.2367 13.4213 64.1033 13.7767 65.282 14.158C66.4607 14.5567 67.414 14.938 68.142 15.302C68.8873 15.666 69.5287 16.1947 70.066 16.888C70.6033 17.5813 70.872 18.474 70.872 19.566C70.872 20.606 70.6033 21.5507 70.066 22.4C69.546 23.2493 68.7833 23.9253 67.778 24.428C66.7727 24.9307 65.5853 25.182 64.216 25.182ZM81.6941 21.23V25H79.4321C77.8201 25 76.5634 24.61 75.6621 23.83C74.7608 23.0327 74.3101 21.7413 74.3101 19.956V14.184H72.5421V10.492H74.3101V6.956H78.7561V10.492H81.6681V14.184H78.7561V20.008C78.7561 20.4413 78.8601 20.7533 79.0681 20.944C79.2761 21.1347 79.6228 21.23 80.1081 21.23H81.6941ZM98.4966 10.492V25H94.0506V23.024C93.5999 23.6653 92.9846 24.1853 92.2046 24.584C91.4419 24.9653 90.5926 25.156 89.6566 25.156C88.5473 25.156 87.5679 24.9133 86.7186 24.428C85.8693 23.9253 85.2106 23.206 84.7426 22.27C84.2746 21.334 84.0406 20.2333 84.0406 18.968V10.492H88.4606V18.37C88.4606 19.3407 88.7119 20.0947 89.2146 20.632C89.7173 21.1693 90.3933 21.438 91.2426 21.438C92.1093 21.438 92.7939 21.1693 93.2966 20.632C93.7993 20.0947 94.0506 19.3407 94.0506 18.37V10.492H98.4966ZM100.806 17.72C100.806 16.2293 101.083 14.9207 101.638 13.794C102.21 12.6673 102.981 11.8007 103.952 11.194C104.923 10.5873 106.006 10.284 107.202 10.284C108.155 10.284 109.022 10.4833 109.802 10.882C110.599 11.2807 111.223 11.818 111.674 12.494V5.76H116.12V25H111.674V22.92C111.258 23.6133 110.66 24.168 109.88 24.584C109.117 25 108.225 25.208 107.202 25.208C106.006 25.208 104.923 24.9047 103.952 24.298C102.981 23.674 102.21 22.7987 101.638 21.672C101.083 20.528 100.806 19.2107 100.806 17.72ZM111.674 17.746C111.674 16.6367 111.362 15.7613 110.738 15.12C110.131 14.4787 109.386 14.158 108.502 14.158C107.618 14.158 106.864 14.4787 106.24 15.12C105.633 15.744 105.33 16.6107 105.33 17.72C105.33 18.8293 105.633 19.7133 106.24 20.372C106.864 21.0133 107.618 21.334 108.502 21.334C109.386 21.334 110.131 21.0133 110.738 20.372C111.362 19.7307 111.674 18.8553 111.674 17.746ZM133.013 17.512C133.013 17.928 132.987 18.3613 132.935 18.812H122.873C122.942 19.7133 123.228 20.4067 123.731 20.892C124.251 21.36 124.883 21.594 125.629 21.594C126.738 21.594 127.509 21.126 127.943 20.19H132.675C132.432 21.1433 131.99 22.0013 131.349 22.764C130.725 23.5267 129.936 24.1247 128.983 24.558C128.029 24.9913 126.963 25.208 125.785 25.208C124.363 25.208 123.098 24.9047 121.989 24.298C120.879 23.6913 120.013 22.8247 119.389 21.698C118.765 20.5713 118.453 19.254 118.453 17.746C118.453 16.238 118.756 14.9207 119.363 13.794C119.987 12.6673 120.853 11.8007 121.963 11.194C123.072 10.5873 124.346 10.284 125.785 10.284C127.189 10.284 128.437 10.5787 129.529 11.168C130.621 11.7573 131.47 12.598 132.077 13.69C132.701 14.782 133.013 16.056 133.013 17.512ZM128.463 16.342C128.463 15.5793 128.203 14.9727 127.683 14.522C127.163 14.0713 126.513 13.846 125.733 13.846C124.987 13.846 124.355 14.0627 123.835 14.496C123.332 14.9293 123.02 15.5447 122.899 16.342H128.463ZM144.198 10.336C145.897 10.336 147.249 10.8907 148.254 12C149.277 13.092 149.788 14.6 149.788 16.524V25H145.368V17.122C145.368 16.1513 145.117 15.3973 144.614 14.86C144.111 14.3227 143.435 14.054 142.586 14.054C141.737 14.054 141.061 14.3227 140.558 14.86C140.055 15.3973 139.804 16.1513 139.804 17.122V25H135.358V10.492H139.804V12.416C140.255 11.7747 140.861 11.272 141.624 10.908C142.387 10.5267 143.245 10.336 144.198 10.336ZM160.964 21.23V25H158.702C157.09 25 155.833 24.61 154.932 23.83C154.03 23.0327 153.58 21.7413 153.58 19.956V14.184H151.812V10.492H153.58V6.956H158.026V10.492H160.938V14.184H158.026V20.008C158.026 20.4413 158.13 20.7533 158.338 20.944C158.546 21.1347 158.892 21.23 159.378 21.23H160.964Z" fill="#0066FF"/>
<rect width="44" height="44" rx="10" fill="#0066FF"/>
</svg>
