<?xml version="1.0" standalone="no"?>
<!DOCTYPE svg PUBLIC "-//W3C//DTD SVG 20010904//EN" "http://www.w3.org/TR/2001/REC-SVG-20010904/DTD/svg10.dtd">
<svg version="1.0" xmlns="http://www.w3.org/2000/svg"
    width="500.000000pt" height="500.000000pt" viewBox="0 0 500.000000 500.000000"
    preserveAspectRatio="xMidYMid meet">

    <g transform="translate(0.000000,500.000000) scale(0.100000,-0.100000)"
        fill="#0066FF" stroke="none">
        <path
            d="M2026 3003 c-3 -4 -6 -42 -6 -86 l0 -79 -27 6 c-16 3 -56 9 -90 12
l-62 7 -3 -79 -3 -78 -60 -16 c-33 -8 -66 -19 -72 -23 -9 -6 -13 -39 -13 -108
0 -81 3 -99 15 -99 12 0 15 17 15 95 l0 94 38 11 c194 54 405 29 552 -67 69
-44 164 -116 168 -125 7 -15 23 -7 95 46 40 29 96 68 125 86 128 78 305 107
462 76 124 -26 120 -21 120 -126 0 -53 4 -90 10 -90 6 0 10 41 10 104 l0 105
-54 15 c-30 9 -61 16 -70 16 -13 0 -16 14 -16 81 l0 82 -57 -7 c-32 -4 -75 -9
-95 -12 l-38 -6 0 81 c0 97 -1 98 -110 45 -155 -74 -275 -183 -331 -302 l-32
-66 -23 53 c-49 110 -153 216 -284 289 -69 39 -156 73 -164 65z m119 -71 c128
-64 241 -166 289 -260 37 -72 34 -97 -5 -49 -56 68 -187 145 -319 187 l-55 18
-3 72 c-3 71 -3 72 20 65 13 -4 46 -19 73 -33z m803 -33 l-3 -70 -75 -25
c-112 -38 -202 -89 -276 -157 -53 -49 -65 -56 -59 -37 25 82 116 194 211 261
50 34 174 98 192 99 10 0 12 -18 10 -71z m-897 -99 c168 -45 350 -158 398
-248 17 -32 2 -27 -59 20 -65 49 -194 110 -270 129 -30 7 -99 13 -152 14 l-98
0 0 61 0 62 69 -13 c37 -8 88 -19 112 -25z m1079 -22 l0 -63 -102 0 c-159 -1
-283 -42 -415 -139 -35 -26 -65 -46 -68 -46 -16 0 2 26 56 84 50 54 79 74 162
115 89 43 230 87 337 104 14 2 26 5 28 6 1 0 2 -27 2 -61z" />
        <path
            d="M1260 2345 c0 -3 8 -13 19 -24 13 -13 21 -45 30 -117 17 -146 29
-204 53 -255 28 -65 79 -87 112 -50 16 18 16 18 -9 14 -22 -5 -28 0 -44 38
-10 24 -29 116 -41 204 -13 90 -28 167 -36 175 -12 15 -84 27 -84 15z" />
        <path
            d="M1480 2335 c-11 -13 -10 -15 1 -10 32 11 40 -15 69 -224 16 -117 32
-217 36 -222 3 -5 17 -9 31 -9 25 0 26 1 20 58 -22 216 -52 386 -73 407 -20
19 -68 19 -84 0z" />
        <path
            d="M2227 2328 c-16 -12 -17 -33 -15 -233 l3 -220 30 0 30 0 0 230 c0
198 -2 230 -15 233 -9 1 -23 -3 -33 -10z" />
        <path
            d="M1754 2186 c-17 -8 -41 -27 -53 -42 l-23 -29 24 -6 c39 -12 48 -10
48 9 0 31 42 62 86 63 34 1 36 2 14 9 -37 12 -61 11 -96 -4z" />
        <path
            d="M2392 2183 c-31 -15 -70 -59 -61 -67 2 -2 16 -6 32 -10 22 -5 27 -3
27 12 0 31 42 62 86 63 34 1 36 2 14 9 -39 13 -62 11 -98 -7z" />
        <path
            d="M3140 2193 c-22 -8 -50 -35 -62 -58 -9 -16 -8 -18 3 -7 7 6 34 12 60
12 40 0 49 4 54 21 10 31 -17 46 -55 32z" />
        <path
            d="M3645 2190 c-18 -8 -18 -9 -2 -9 24 -1 90 -35 106 -55 18 -22 26 -20
40 10 15 33 10 39 -43 53 -52 13 -73 13 -101 1z" />
        <path
            d="M2120 2179 c-64 -26 -103 -90 -103 -169 0 -93 41 -145 107 -137 21 3
46 13 55 21 14 15 12 16 -21 16 -21 0 -44 7 -53 17 -53 52 -44 172 16 233 17
16 29 30 27 29 -2 0 -14 -5 -28 -10z" />
        <path
            d="M2660 2055 c0 -131 1 -137 25 -160 15 -16 35 -25 56 -25 l32 0 -27
21 c-26 20 -26 21 -26 160 l0 139 -30 0 -30 0 0 -135z" />
        <path d="M2862 2033 l3 -158 28 -3 27 -3 0 160 0 161 -30 0 -31 0 3 -157z" />
        <path
            d="M3015 2176 l-30 -11 5 -145 5 -145 28 -3 c17 -2 27 1 28 10 5 92 5
299 1 302 -4 2 -20 -2 -37 -8z" />
        <path
            d="M3252 2049 c3 -134 4 -142 27 -160 25 -21 77 -25 101 -8 12 8 11 9
-6 5 -11 -4 -29 0 -40 8 -17 13 -19 29 -22 155 l-4 141 -30 0 -30 0 4 -141z" />
        <path
            d="M3452 2033 l3 -158 28 -3 c25 -3 27 0 27 30 1 18 2 90 3 161 l2 127
-33 0 -33 0 3 -157z" />
        <path d="M1241 2164 c0 -11 3 -14 6 -6 3 7 2 16 -1 19 -3 4 -6 -2 -5 -13z" />
        <path
            d="M3574 2136 c-13 -54 14 -86 112 -136 53 -27 93 -54 100 -67 14 -29
24 -19 24 22 0 38 -37 76 -95 100 -90 37 -108 49 -120 79 l-13 31 -8 -29z" />
        <path
            d="M1212 2010 c-12 -69 -22 -128 -22 -132 0 -5 28 -8 62 -8 l61 0 -20
23 c-30 34 -45 79 -52 164 l-6 78 -23 -125z" />
        <path
            d="M2549 2050 c-2 -41 -3 -99 -1 -128 4 -50 5 -52 33 -52 34 0 35 -5 -5
160 l-23 95 -4 -75z" />
        <path
            d="M1909 2040 c-2 -36 -3 -89 -1 -117 4 -48 6 -53 27 -53 13 0 26 4 29
8 2 4 -8 57 -23 117 l-28 110 -4 -65z" />
        <path
            d="M1778 2061 c-55 -35 -98 -89 -98 -124 0 -37 43 -67 94 -67 l41 0 -33
17 c-60 30 -55 94 14 160 52 50 46 55 -18 14z" />
        <path
            d="M2407 2049 c-115 -82 -115 -164 0 -176 l48 -5 -35 24 c-58 40 -50
101 23 163 55 48 33 44 -36 -6z" />
        <path
            d="M3579 1957 c-16 -37 -4 -58 42 -74 40 -14 119 -17 119 -4 0 5 -14 11
-31 15 -18 3 -50 25 -75 49 l-43 43 -12 -29z" />
    </g>
</svg>