<svg width="24" height="24" viewBox="0 0 24 24" fill="none" xmlns="http://www.w3.org/2000/svg">
<path d="M4.18766 20.149C3.65802 20.149 3.20479 19.9605 2.82794 19.5837C2.45046 19.2062 2.26172 18.7527 2.26172 18.223V6.66739C2.26172 6.13776 2.45046 5.68452 2.82794 5.30768C3.20479 4.9302 3.65802 4.74146 4.18766 4.74146H19.5952C20.1248 4.74146 20.5783 4.9302 20.9558 5.30768C21.3327 5.68452 21.5211 6.13776 21.5211 6.66739V18.223C21.5211 18.7527 21.3327 19.2062 20.9558 19.5837C20.5783 19.9605 20.1248 20.149 19.5952 20.149H4.18766ZM11.8914 13.4082L4.18766 8.59333V18.223H19.5952V8.59333L11.8914 13.4082ZM11.8914 11.4822L19.5952 6.66739H4.18766L11.8914 11.4822ZM4.18766 8.59333V6.66739V18.223V8.59333Z" fill="#3C3C3C"/>
</svg>
