<svg width="24" height="24" viewBox="0 0 24 24" fill="none" xmlns="http://www.w3.org/2000/svg">
<path d="M19.5469 20.2224C17.4765 20.2224 15.4585 19.7608 13.4927 18.8376C11.5264 17.9151 9.785 16.6953 8.26864 15.1783C6.75164 13.662 5.53188 11.9206 4.60936 9.95422C3.68619 7.98848 3.22461 5.97042 3.22461 3.90003C3.22461 3.61114 3.32091 3.3704 3.5135 3.17781C3.70609 2.98521 3.94684 2.88892 4.23573 2.88892H8.13575C8.36044 2.88892 8.56106 2.96114 8.73761 3.10558C8.91415 3.25003 9.01847 3.4346 9.05057 3.65929L9.6765 7.02968C9.7086 7.25437 9.70475 7.45884 9.66494 7.64309C9.6245 7.82798 9.53205 7.99265 9.38761 8.1371L7.05241 10.4964C7.72649 11.6519 8.57326 12.7353 9.59272 13.7464C10.6115 14.7575 11.7308 15.6322 12.9506 16.3705L15.2136 14.1075C15.358 13.9631 15.5468 13.8546 15.7798 13.782C16.0122 13.7101 16.2407 13.6902 16.4654 13.7223L19.7877 14.3964C20.0124 14.4445 20.1969 14.5527 20.3414 14.7209C20.4858 14.8898 20.558 15.0865 20.558 15.3112V19.2112C20.558 19.5001 20.4618 19.7409 20.2692 19.9335C20.0766 20.1261 19.8358 20.2224 19.5469 20.2224ZM6.13759 8.66673L7.72649 7.07783L7.31723 4.81485H5.17462C5.25487 5.47288 5.36721 6.12289 5.51166 6.76487C5.65611 7.40685 5.86475 8.0408 6.13759 8.66673ZM18.6321 18.2483V16.1297L16.3691 15.6723L14.7562 17.2853C15.3821 17.5581 16.0202 17.7748 16.6705 17.9353C17.3202 18.0958 17.9741 18.2001 18.6321 18.2483Z" fill="#3C3C3C"/>
</svg>
