<svg width="21" height="20" viewBox="0 0 21 20" fill="none" xmlns="http://www.w3.org/2000/svg">
<path d="M10.7736 0.622559C7.00757 0.622559 3.9419 3.7074 3.94189 7.49694C3.94189 14.1649 10.3884 19.2341 10.3884 19.2341C10.4985 19.3225 10.6351 19.3706 10.7759 19.3706C10.9167 19.3706 11.0533 19.3225 11.1633 19.2341C11.1633 19.2341 17.6099 14.1649 17.6099 7.49694C17.6098 3.7074 14.5396 0.622559 10.7736 0.622559ZM10.7736 1.87287C13.8682 1.87287 16.3673 4.38294 16.3673 7.49694C16.3673 12.9519 11.4585 17.2617 10.7782 17.8454C10.1011 17.2646 5.18443 12.954 5.18444 7.49694C5.18444 4.38294 7.67892 1.87287 10.7736 1.87287Z" fill="white"/>
<path d="M10.7735 4.37347C9.06569 4.37347 7.66944 5.77846 7.66943 7.49694C7.66942 9.21544 9.06567 10.625 10.7735 10.625C12.4813 10.625 13.8822 9.21544 13.8821 7.49694C13.8821 5.77846 12.4813 4.37347 10.7735 4.37347ZM10.7735 5.62378C11.81 5.62378 12.6396 6.454 12.6396 7.49694C12.6396 8.53987 11.81 9.3747 10.7735 9.3747C9.73703 9.3747 8.91197 8.53987 8.91198 7.49694C8.91198 6.454 9.73704 5.62378 10.7735 5.62378Z" fill="white"/>
</svg>
