<svg width="20" height="20" viewBox="0 0 20 20" fill="none" xmlns="http://www.w3.org/2000/svg">
<path d="M0.832031 16.4173C0.832031 17.9757 2.0237 19.1673 3.58203 19.1673H16.4154C17.9737 19.1673 19.1654 17.9757 19.1654 16.4173V9.08398H0.832031V16.4173ZM16.4154 2.66732H14.582V1.75065C14.582 1.20065 14.2154 0.833984 13.6654 0.833984C13.1154 0.833984 12.7487 1.20065 12.7487 1.75065V2.66732H7.2487V1.75065C7.2487 1.20065 6.88203 0.833984 6.33203 0.833984C5.78203 0.833984 5.41536 1.20065 5.41536 1.75065V2.66732H3.58203C2.0237 2.66732 0.832031 3.85898 0.832031 5.41732V7.25065H19.1654V5.41732C19.1654 3.85898 17.9737 2.66732 16.4154 2.66732Z" fill="#3C3C3C"/>
</svg>
