<svg width="40" height="41" viewBox="0 0 40 41" fill="none" xmlns="http://www.w3.org/2000/svg">
<path d="M37.6 3.32826H23.2C22.5778 3.32826 22.0222 3.55048 21.5333 3.99492C21.0444 4.43937 20.8 5.01715 20.8 5.72826V14.3949L11.4667 16.9283H2.66667C1.95556 16.9283 1.33333 17.1949 0.8 17.7283C0.266667 18.2616 0 18.8838 0 19.5949V25.1949C0 25.906 0.266667 26.506 0.8 26.9949C1.33333 27.4838 1.95556 27.7283 2.66667 27.7283H3.86667L4.8 35.4616C4.97778 36.4394 5.51111 37.106 6.4 37.4616C6.84444 37.6394 7.33333 37.706 7.86667 37.6616C8.4 37.6171 8.84445 37.4616 9.2 37.1949C10 36.5727 10.3111 35.7283 10.1333 34.6616L9.2 27.7283H11.4667L31.0667 33.3283C31.3333 33.3283 31.5778 33.2616 31.8 33.1283C32.0222 32.9949 32.1333 32.7949 32.1333 32.5283V17.4616H37.6C38.3111 17.4616 38.8889 17.2171 39.3333 16.7283C39.7778 16.2394 40 15.6838 40 15.0616V5.72826C40 5.01715 39.7778 4.43937 39.3333 3.99492C38.8889 3.55048 38.3111 3.32826 37.6 3.32826ZM1.6 25.1949V19.5949C1.6 19.3283 1.68889 19.0838 1.86667 18.8616C2.04444 18.6394 2.31111 18.5283 2.66667 18.5283H10.8V26.2616H2.66667C2.31111 26.2616 2.04444 26.1505 1.86667 25.9283C1.68889 25.706 1.6 25.4616 1.6 25.1949ZM8.66667 34.9283C8.66667 35.3727 8.51111 35.706 8.2 35.9283C7.88889 36.1505 7.51111 36.1949 7.06667 36.0616C6.62222 35.9283 6.4 35.6394 6.4 35.1949L5.46667 27.7283H7.73333L8.66667 34.9283ZM30.5333 31.4616L12.4 26.3949V18.3949L21.0667 15.8616C21.2444 16.306 21.5333 16.6838 21.9333 16.9949C22.3333 17.306 22.7556 17.4616 23.2 17.4616H25.2L26.5333 18.7949C26.7111 18.8838 26.9111 18.9283 27.1333 18.9283C27.3556 18.9283 27.5111 18.8838 27.6 18.7949L28.9333 17.4616H30.5333V31.4616ZM38.4 15.0616C38.4 15.2394 38.3333 15.4171 38.2 15.5949C38.0667 15.7727 37.8667 15.8616 37.6 15.8616H28.6667C28.4889 15.8616 28.3111 15.9505 28.1333 16.1283L27.0667 17.0616L26.1333 16.1283C25.9556 15.9505 25.7778 15.8616 25.6 15.8616H23.2C23.0222 15.8616 22.8444 15.7727 22.6667 15.5949C22.4889 15.4171 22.4 15.2394 22.4 15.0616V5.72826C22.4 5.46159 22.4889 5.26159 22.6667 5.12826C22.8444 4.99492 23.0222 4.92826 23.2 4.92826H37.6C37.8667 4.92826 38.0667 4.99492 38.2 5.12826C38.3333 5.26159 38.4 5.46159 38.4 5.72826V15.0616ZM35.0667 6.52826H25.7333C25.3778 6.52826 25.1333 6.63937 25 6.86159C24.8667 7.08381 24.8667 7.32826 25 7.59492C25.1333 7.86159 25.3778 7.99492 25.7333 7.99492H35.0667C35.4222 7.99492 35.6667 7.86159 35.8 7.59492C35.9333 7.32826 35.9333 7.08381 35.8 6.86159C35.6667 6.63937 35.4222 6.52826 35.0667 6.52826ZM35.0667 9.59492H25.7333C25.3778 9.59492 25.1333 9.72826 25 9.99492C24.8667 10.2616 24.8667 10.5283 25 10.7949C25.1333 11.0616 25.3778 11.1949 25.7333 11.1949H35.0667C35.4222 11.1949 35.6667 11.0616 35.8 10.7949C35.9333 10.5283 35.9333 10.2616 35.8 9.99492C35.6667 9.72826 35.4222 9.59492 35.0667 9.59492ZM30.4 12.6616H25.7333C25.3778 12.7505 25.1333 12.906 25 13.1283C24.8667 13.3505 24.8667 13.5949 25 13.8616C25.1333 14.1283 25.3778 14.2616 25.7333 14.2616H30.4C30.7556 14.2616 31 14.1283 31.1333 13.8616C31.2667 13.5949 31.2667 13.3505 31.1333 13.1283C31 12.906 30.7556 12.7505 30.4 12.6616Z" fill="#1E1E1E"/>
</svg>
