<svg width="20" height="20" viewBox="0 0 20 20" fill="none" xmlns="http://www.w3.org/2000/svg">
<path d="M2.07299 6.31345H2.34667C3.40034 6.31345 4.26243 7.17555 4.26243 8.22922V17.808C4.26243 18.8617 3.40034 19.7238 2.34667 19.7238H2.07299C1.01932 19.7238 0.157227 18.8617 0.157227 17.808V8.22922C0.157227 7.17555 1.01932 6.31345 2.07299 6.31345ZM9.73605 0.566162C10.7897 0.566162 11.6518 1.42826 11.6518 2.48193V17.808C11.6518 18.8617 10.7897 19.7238 9.73605 19.7238C8.68238 19.7238 7.82028 18.8617 7.82028 17.808V2.48193C7.82028 1.42826 8.68238 0.566162 9.73605 0.566162ZM17.3991 11.5134C18.4528 11.5134 19.3149 12.3755 19.3149 13.4291V17.808C19.3149 18.8617 18.4528 19.7238 17.3991 19.7238C16.3454 19.7238 15.4833 18.8617 15.4833 17.808V13.4291C15.4833 12.3755 16.3454 11.5134 17.3991 11.5134Z" fill="#4318FF"/>
</svg>
